<svg xmlns="http://www.w3.org/2000/svg" width="407" height="407" viewBox="0 0 407 407"><rect x="22" y="22" width="11" height="11" fill="white"/><rect x="33" y="22" width="11" height="11" fill="white"/><rect x="44" y="22" width="11" height="11" fill="white"/><rect x="55" y="22" width="11" height="11" fill="white"/><rect x="66" y="22" width="11" height="11" fill="white"/><rect x="77" y="22" width="11" height="11" fill="white"/><rect x="88" y="22" width="11" height="11" fill="white"/><rect x="121" y="22" width="11" height="11" fill="white"/><rect x="132" y="22" width="11" height="11" fill="white"/><rect x="154" y="22" width="11" height="11" fill="white"/><rect x="176" y="22" width="11" height="11" fill="white"/><rect x="187" y="22" width="11" height="11" fill="white"/><rect x="198" y="22" width="11" height="11" fill="white"/><rect x="220" y="22" width="11" height="11" fill="white"/><rect x="253" y="22" width="11" height="11" fill="white"/><rect x="275" y="22" width="11" height="11" fill="white"/><rect x="286" y="22" width="11" height="11" fill="white"/><rect x="308" y="22" width="11" height="11" fill="white"/><rect x="319" y="22" width="11" height="11" fill="white"/><rect x="330" y="22" width="11" height="11" fill="white"/><rect x="341" y="22" width="11" height="11" fill="white"/><rect x="352" y="22" width="11" height="11" fill="white"/><rect x="363" y="22" width="11" height="11" fill="white"/><rect x="374" y="22" width="11" height="11" fill="white"/><rect x="22" y="33" width="11" height="11" fill="white"/><rect x="88" y="33" width="11" height="11" fill="white"/><rect x="121" y="33" width="11" height="11" fill="white"/><rect x="143" y="33" width="11" height="11" fill="white"/><rect x="154" y="33" width="11" height="11" fill="white"/><rect x="209" y="33" width="11" height="11" fill="white"/><rect x="220" y="33" width="11" height="11" fill="white"/><rect x="242" y="33" width="11" height="11" fill="white"/><rect x="253" y="33" width="11" height="11" fill="white"/><rect x="275" y="33" width="11" height="11" fill="white"/><rect x="308" y="33" width="11" height="11" fill="white"/><rect x="374" y="33" width="11" height="11" fill="white"/><rect x="22" y="44" width="11" height="11" fill="white"/><rect x="44" y="44" width="11" height="11" fill="white"/><rect x="55" y="44" width="11" height="11" fill="white"/><rect x="66" y="44" width="11" height="11" fill="white"/><rect x="88" y="44" width="11" height="11" fill="white"/><rect x="121" y="44" width="11" height="11" fill="white"/><rect x="132" y="44" width="11" height="11" fill="white"/><rect x="154" y="44" width="11" height="11" fill="white"/><rect x="176" y="44" width="11" height="11" fill="white"/><rect x="198" y="44" width="11" height="11" fill="white"/><rect x="220" y="44" width="11" height="11" fill="white"/><rect x="231" y="44" width="11" height="11" fill="white"/><rect x="242" y="44" width="11" height="11" fill="white"/><rect x="275" y="44" width="11" height="11" fill="white"/><rect x="308" y="44" width="11" height="11" fill="white"/><rect x="330" y="44" width="11" height="11" fill="white"/><rect x="341" y="44" width="11" height="11" fill="white"/><rect x="352" y="44" width="11" height="11" fill="white"/><rect x="374" y="44" width="11" height="11" fill="white"/><rect x="22" y="55" width="11" height="11" fill="white"/><rect x="44" y="55" width="11" height="11" fill="white"/><rect x="55" y="55" width="11" height="11" fill="white"/><rect x="66" y="55" width="11" height="11" fill="white"/><rect x="88" y="55" width="11" height="11" fill="white"/><rect x="154" y="55" width="11" height="11" fill="white"/><rect x="165" y="55" width="11" height="11" fill="white"/><rect x="187" y="55" width="11" height="11" fill="white"/><rect x="264" y="55" width="11" height="11" fill="white"/><rect x="275" y="55" width="11" height="11" fill="white"/><rect x="308" y="55" width="11" height="11" fill="white"/><rect x="330" y="55" width="11" height="11" fill="white"/><rect x="341" y="55" width="11" height="11" fill="white"/><rect x="352" y="55" width="11" height="11" fill="white"/><rect x="374" y="55" width="11" height="11" fill="white"/><rect x="22" y="66" width="11" height="11" fill="white"/><rect x="44" y="66" width="11" height="11" fill="white"/><rect x="55" y="66" width="11" height="11" fill="white"/><rect x="66" y="66" width="11" height="11" fill="white"/><rect x="88" y="66" width="11" height="11" fill="white"/><rect x="110" y="66" width="11" height="11" fill="white"/><rect x="132" y="66" width="11" height="11" fill="white"/><rect x="143" y="66" width="11" height="11" fill="white"/><rect x="154" y="66" width="11" height="11" fill="white"/><rect x="209" y="66" width="11" height="11" fill="white"/><rect x="231" y="66" width="11" height="11" fill="white"/><rect x="253" y="66" width="11" height="11" fill="white"/><rect x="275" y="66" width="11" height="11" fill="white"/><rect x="308" y="66" width="11" height="11" fill="white"/><rect x="330" y="66" width="11" height="11" fill="white"/><rect x="341" y="66" width="11" height="11" fill="white"/><rect x="352" y="66" width="11" height="11" fill="white"/><rect x="374" y="66" width="11" height="11" fill="white"/><rect x="22" y="77" width="11" height="11" fill="white"/><rect x="88" y="77" width="11" height="11" fill="white"/><rect x="132" y="77" width="11" height="11" fill="white"/><rect x="165" y="77" width="11" height="11" fill="white"/><rect x="176" y="77" width="11" height="11" fill="white"/><rect x="187" y="77" width="11" height="11" fill="white"/><rect x="220" y="77" width="11" height="11" fill="white"/><rect x="231" y="77" width="11" height="11" fill="white"/><rect x="242" y="77" width="11" height="11" fill="white"/><rect x="253" y="77" width="11" height="11" fill="white"/><rect x="264" y="77" width="11" height="11" fill="white"/><rect x="286" y="77" width="11" height="11" fill="white"/><rect x="308" y="77" width="11" height="11" fill="white"/><rect x="374" y="77" width="11" height="11" fill="white"/><rect x="22" y="88" width="11" height="11" fill="white"/><rect x="33" y="88" width="11" height="11" fill="white"/><rect x="44" y="88" width="11" height="11" fill="white"/><rect x="55" y="88" width="11" height="11" fill="white"/><rect x="66" y="88" width="11" height="11" fill="white"/><rect x="77" y="88" width="11" height="11" fill="white"/><rect x="88" y="88" width="11" height="11" fill="white"/><rect x="110" y="88" width="11" height="11" fill="white"/><rect x="132" y="88" width="11" height="11" fill="white"/><rect x="154" y="88" width="11" height="11" fill="white"/><rect x="176" y="88" width="11" height="11" fill="white"/><rect x="198" y="88" width="11" height="11" fill="white"/><rect x="220" y="88" width="11" height="11" fill="white"/><rect x="242" y="88" width="11" height="11" fill="white"/><rect x="264" y="88" width="11" height="11" fill="white"/><rect x="286" y="88" width="11" height="11" fill="white"/><rect x="308" y="88" width="11" height="11" fill="white"/><rect x="319" y="88" width="11" height="11" fill="white"/><rect x="330" y="88" width="11" height="11" fill="white"/><rect x="341" y="88" width="11" height="11" fill="white"/><rect x="352" y="88" width="11" height="11" fill="white"/><rect x="363" y="88" width="11" height="11" fill="white"/><rect x="374" y="88" width="11" height="11" fill="white"/><rect x="110" y="99" width="11" height="11" fill="white"/><rect x="121" y="99" width="11" height="11" fill="white"/><rect x="132" y="99" width="11" height="11" fill="white"/><rect x="143" y="99" width="11" height="11" fill="white"/><rect x="154" y="99" width="11" height="11" fill="white"/><rect x="176" y="99" width="11" height="11" fill="white"/><rect x="220" y="99" width="11" height="11" fill="white"/><rect x="231" y="99" width="11" height="11" fill="white"/><rect x="242" y="99" width="11" height="11" fill="white"/><rect x="264" y="99" width="11" height="11" fill="white"/><rect x="275" y="99" width="11" height="11" fill="white"/><rect x="44" y="110" width="11" height="11" fill="white"/><rect x="55" y="110" width="11" height="11" fill="white"/><rect x="88" y="110" width="11" height="11" fill="white"/><rect x="99" y="110" width="11" height="11" fill="white"/><rect x="110" y="110" width="11" height="11" fill="white"/><rect x="121" y="110" width="11" height="11" fill="white"/><rect x="143" y="110" width="11" height="11" fill="white"/><rect x="176" y="110" width="11" height="11" fill="white"/><rect x="187" y="110" width="11" height="11" fill="white"/><rect x="198" y="110" width="11" height="11" fill="white"/><rect x="220" y="110" width="11" height="11" fill="white"/><rect x="231" y="110" width="11" height="11" fill="white"/><rect x="242" y="110" width="11" height="11" fill="white"/><rect x="297" y="110" width="11" height="11" fill="white"/><rect x="308" y="110" width="11" height="11" fill="white"/><rect x="330" y="110" width="11" height="11" fill="white"/><rect x="33" y="121" width="11" height="11" fill="white"/><rect x="55" y="121" width="11" height="11" fill="white"/><rect x="66" y="121" width="11" height="11" fill="white"/><rect x="77" y="121" width="11" height="11" fill="white"/><rect x="121" y="121" width="11" height="11" fill="white"/><rect x="143" y="121" width="11" height="11" fill="white"/><rect x="154" y="121" width="11" height="11" fill="white"/><rect x="176" y="121" width="11" height="11" fill="white"/><rect x="187" y="121" width="11" height="11" fill="white"/><rect x="198" y="121" width="11" height="11" fill="white"/><rect x="209" y="121" width="11" height="11" fill="white"/><rect x="231" y="121" width="11" height="11" fill="white"/><rect x="242" y="121" width="11" height="11" fill="white"/><rect x="264" y="121" width="11" height="11" fill="white"/><rect x="297" y="121" width="11" height="11" fill="white"/><rect x="308" y="121" width="11" height="11" fill="white"/><rect x="341" y="121" width="11" height="11" fill="white"/><rect x="374" y="121" width="11" height="11" fill="white"/><rect x="33" y="132" width="11" height="11" fill="white"/><rect x="44" y="132" width="11" height="11" fill="white"/><rect x="55" y="132" width="11" height="11" fill="white"/><rect x="88" y="132" width="11" height="11" fill="white"/><rect x="99" y="132" width="11" height="11" fill="white"/><rect x="143" y="132" width="11" height="11" fill="white"/><rect x="187" y="132" width="11" height="11" fill="white"/><rect x="220" y="132" width="11" height="11" fill="white"/><rect x="253" y="132" width="11" height="11" fill="white"/><rect x="264" y="132" width="11" height="11" fill="white"/><rect x="275" y="132" width="11" height="11" fill="white"/><rect x="286" y="132" width="11" height="11" fill="white"/><rect x="308" y="132" width="11" height="11" fill="white"/><rect x="352" y="132" width="11" height="11" fill="white"/><rect x="363" y="132" width="11" height="11" fill="white"/><rect x="374" y="132" width="11" height="11" fill="white"/><rect x="22" y="143" width="11" height="11" fill="white"/><rect x="77" y="143" width="11" height="11" fill="white"/><rect x="99" y="143" width="11" height="11" fill="white"/><rect x="110" y="143" width="11" height="11" fill="white"/><rect x="154" y="143" width="11" height="11" fill="white"/><rect x="176" y="143" width="11" height="11" fill="white"/><rect x="187" y="143" width="11" height="11" fill="white"/><rect x="198" y="143" width="11" height="11" fill="white"/><rect x="209" y="143" width="11" height="11" fill="white"/><rect x="231" y="143" width="11" height="11" fill="white"/><rect x="253" y="143" width="11" height="11" fill="white"/><rect x="264" y="143" width="11" height="11" fill="white"/><rect x="275" y="143" width="11" height="11" fill="white"/><rect x="319" y="143" width="11" height="11" fill="white"/><rect x="330" y="143" width="11" height="11" fill="white"/><rect x="341" y="143" width="11" height="11" fill="white"/><rect x="22" y="154" width="11" height="11" fill="white"/><rect x="33" y="154" width="11" height="11" fill="white"/><rect x="44" y="154" width="11" height="11" fill="white"/><rect x="55" y="154" width="11" height="11" fill="white"/><rect x="88" y="154" width="11" height="11" fill="white"/><rect x="143" y="154" width="11" height="11" fill="white"/><rect x="154" y="154" width="11" height="11" fill="white"/><rect x="176" y="154" width="11" height="11" fill="white"/><rect x="198" y="154" width="11" height="11" fill="white"/><rect x="209" y="154" width="11" height="11" fill="white"/><rect x="220" y="154" width="11" height="11" fill="white"/><rect x="231" y="154" width="11" height="11" fill="white"/><rect x="253" y="154" width="11" height="11" fill="white"/><rect x="264" y="154" width="11" height="11" fill="white"/><rect x="286" y="154" width="11" height="11" fill="white"/><rect x="297" y="154" width="11" height="11" fill="white"/><rect x="341" y="154" width="11" height="11" fill="white"/><rect x="55" y="165" width="11" height="11" fill="white"/><rect x="66" y="165" width="11" height="11" fill="white"/><rect x="121" y="165" width="11" height="11" fill="white"/><rect x="132" y="165" width="11" height="11" fill="white"/><rect x="165" y="165" width="11" height="11" fill="white"/><rect x="176" y="165" width="11" height="11" fill="white"/><rect x="187" y="165" width="11" height="11" fill="white"/><rect x="198" y="165" width="11" height="11" fill="white"/><rect x="220" y="165" width="11" height="11" fill="white"/><rect x="231" y="165" width="11" height="11" fill="white"/><rect x="253" y="165" width="11" height="11" fill="white"/><rect x="286" y="165" width="11" height="11" fill="white"/><rect x="297" y="165" width="11" height="11" fill="white"/><rect x="319" y="165" width="11" height="11" fill="white"/><rect x="352" y="165" width="11" height="11" fill="white"/><rect x="33" y="176" width="11" height="11" fill="white"/><rect x="55" y="176" width="11" height="11" fill="white"/><rect x="77" y="176" width="11" height="11" fill="white"/><rect x="88" y="176" width="11" height="11" fill="white"/><rect x="132" y="176" width="11" height="11" fill="white"/><rect x="143" y="176" width="11" height="11" fill="white"/><rect x="165" y="176" width="11" height="11" fill="white"/><rect x="176" y="176" width="11" height="11" fill="white"/><rect x="198" y="176" width="11" height="11" fill="white"/><rect x="220" y="176" width="11" height="11" fill="white"/><rect x="231" y="176" width="11" height="11" fill="white"/><rect x="242" y="176" width="11" height="11" fill="white"/><rect x="253" y="176" width="11" height="11" fill="white"/><rect x="319" y="176" width="11" height="11" fill="white"/><rect x="330" y="176" width="11" height="11" fill="white"/><rect x="341" y="176" width="11" height="11" fill="white"/><rect x="352" y="176" width="11" height="11" fill="white"/><rect x="33" y="187" width="11" height="11" fill="white"/><rect x="55" y="187" width="11" height="11" fill="white"/><rect x="66" y="187" width="11" height="11" fill="white"/><rect x="99" y="187" width="11" height="11" fill="white"/><rect x="110" y="187" width="11" height="11" fill="white"/><rect x="132" y="187" width="11" height="11" fill="white"/><rect x="143" y="187" width="11" height="11" fill="white"/><rect x="176" y="187" width="11" height="11" fill="white"/><rect x="198" y="187" width="11" height="11" fill="white"/><rect x="242" y="187" width="11" height="11" fill="white"/><rect x="253" y="187" width="11" height="11" fill="white"/><rect x="264" y="187" width="11" height="11" fill="white"/><rect x="275" y="187" width="11" height="11" fill="white"/><rect x="297" y="187" width="11" height="11" fill="white"/><rect x="330" y="187" width="11" height="11" fill="white"/><rect x="341" y="187" width="11" height="11" fill="white"/><rect x="352" y="187" width="11" height="11" fill="white"/><rect x="374" y="187" width="11" height="11" fill="white"/><rect x="22" y="198" width="11" height="11" fill="white"/><rect x="44" y="198" width="11" height="11" fill="white"/><rect x="88" y="198" width="11" height="11" fill="white"/><rect x="99" y="198" width="11" height="11" fill="white"/><rect x="110" y="198" width="11" height="11" fill="white"/><rect x="121" y="198" width="11" height="11" fill="white"/><rect x="132" y="198" width="11" height="11" fill="white"/><rect x="165" y="198" width="11" height="11" fill="white"/><rect x="176" y="198" width="11" height="11" fill="white"/><rect x="187" y="198" width="11" height="11" fill="white"/><rect x="198" y="198" width="11" height="11" fill="white"/><rect x="209" y="198" width="11" height="11" fill="white"/><rect x="231" y="198" width="11" height="11" fill="white"/><rect x="253" y="198" width="11" height="11" fill="white"/><rect x="286" y="198" width="11" height="11" fill="white"/><rect x="297" y="198" width="11" height="11" fill="white"/><rect x="308" y="198" width="11" height="11" fill="white"/><rect x="319" y="198" width="11" height="11" fill="white"/><rect x="341" y="198" width="11" height="11" fill="white"/><rect x="352" y="198" width="11" height="11" fill="white"/><rect x="363" y="198" width="11" height="11" fill="white"/><rect x="55" y="209" width="11" height="11" fill="white"/><rect x="66" y="209" width="11" height="11" fill="white"/><rect x="77" y="209" width="11" height="11" fill="white"/><rect x="99" y="209" width="11" height="11" fill="white"/><rect x="143" y="209" width="11" height="11" fill="white"/><rect x="165" y="209" width="11" height="11" fill="white"/><rect x="198" y="209" width="11" height="11" fill="white"/><rect x="209" y="209" width="11" height="11" fill="white"/><rect x="231" y="209" width="11" height="11" fill="white"/><rect x="242" y="209" width="11" height="11" fill="white"/><rect x="253" y="209" width="11" height="11" fill="white"/><rect x="264" y="209" width="11" height="11" fill="white"/><rect x="275" y="209" width="11" height="11" fill="white"/><rect x="297" y="209" width="11" height="11" fill="white"/><rect x="319" y="209" width="11" height="11" fill="white"/><rect x="330" y="209" width="11" height="11" fill="white"/><rect x="352" y="209" width="11" height="11" fill="white"/><rect x="363" y="209" width="11" height="11" fill="white"/><rect x="44" y="220" width="11" height="11" fill="white"/><rect x="55" y="220" width="11" height="11" fill="white"/><rect x="66" y="220" width="11" height="11" fill="white"/><rect x="77" y="220" width="11" height="11" fill="white"/><rect x="88" y="220" width="11" height="11" fill="white"/><rect x="99" y="220" width="11" height="11" fill="white"/><rect x="110" y="220" width="11" height="11" fill="white"/><rect x="121" y="220" width="11" height="11" fill="white"/><rect x="132" y="220" width="11" height="11" fill="white"/><rect x="143" y="220" width="11" height="11" fill="white"/><rect x="154" y="220" width="11" height="11" fill="white"/><rect x="165" y="220" width="11" height="11" fill="white"/><rect x="176" y="220" width="11" height="11" fill="white"/><rect x="209" y="220" width="11" height="11" fill="white"/><rect x="264" y="220" width="11" height="11" fill="white"/><rect x="308" y="220" width="11" height="11" fill="white"/><rect x="330" y="220" width="11" height="11" fill="white"/><rect x="352" y="220" width="11" height="11" fill="white"/><rect x="363" y="220" width="11" height="11" fill="white"/><rect x="22" y="231" width="11" height="11" fill="white"/><rect x="66" y="231" width="11" height="11" fill="white"/><rect x="110" y="231" width="11" height="11" fill="white"/><rect x="132" y="231" width="11" height="11" fill="white"/><rect x="165" y="231" width="11" height="11" fill="white"/><rect x="176" y="231" width="11" height="11" fill="white"/><rect x="209" y="231" width="11" height="11" fill="white"/><rect x="231" y="231" width="11" height="11" fill="white"/><rect x="242" y="231" width="11" height="11" fill="white"/><rect x="264" y="231" width="11" height="11" fill="white"/><rect x="297" y="231" width="11" height="11" fill="white"/><rect x="308" y="231" width="11" height="11" fill="white"/><rect x="319" y="231" width="11" height="11" fill="white"/><rect x="330" y="231" width="11" height="11" fill="white"/><rect x="363" y="231" width="11" height="11" fill="white"/><rect x="374" y="231" width="11" height="11" fill="white"/><rect x="22" y="242" width="11" height="11" fill="white"/><rect x="44" y="242" width="11" height="11" fill="white"/><rect x="66" y="242" width="11" height="11" fill="white"/><rect x="77" y="242" width="11" height="11" fill="white"/><rect x="88" y="242" width="11" height="11" fill="white"/><rect x="110" y="242" width="11" height="11" fill="white"/><rect x="121" y="242" width="11" height="11" fill="white"/><rect x="143" y="242" width="11" height="11" fill="white"/><rect x="154" y="242" width="11" height="11" fill="white"/><rect x="176" y="242" width="11" height="11" fill="white"/><rect x="187" y="242" width="11" height="11" fill="white"/><rect x="209" y="242" width="11" height="11" fill="white"/><rect x="220" y="242" width="11" height="11" fill="white"/><rect x="231" y="242" width="11" height="11" fill="white"/><rect x="242" y="242" width="11" height="11" fill="white"/><rect x="253" y="242" width="11" height="11" fill="white"/><rect x="297" y="242" width="11" height="11" fill="white"/><rect x="319" y="242" width="11" height="11" fill="white"/><rect x="341" y="242" width="11" height="11" fill="white"/><rect x="352" y="242" width="11" height="11" fill="white"/><rect x="22" y="253" width="11" height="11" fill="white"/><rect x="33" y="253" width="11" height="11" fill="white"/><rect x="44" y="253" width="11" height="11" fill="white"/><rect x="55" y="253" width="11" height="11" fill="white"/><rect x="66" y="253" width="11" height="11" fill="white"/><rect x="110" y="253" width="11" height="11" fill="white"/><rect x="121" y="253" width="11" height="11" fill="white"/><rect x="132" y="253" width="11" height="11" fill="white"/><rect x="143" y="253" width="11" height="11" fill="white"/><rect x="165" y="253" width="11" height="11" fill="white"/><rect x="176" y="253" width="11" height="11" fill="white"/><rect x="187" y="253" width="11" height="11" fill="white"/><rect x="209" y="253" width="11" height="11" fill="white"/><rect x="231" y="253" width="11" height="11" fill="white"/><rect x="242" y="253" width="11" height="11" fill="white"/><rect x="341" y="253" width="11" height="11" fill="white"/><rect x="374" y="253" width="11" height="11" fill="white"/><rect x="66" y="264" width="11" height="11" fill="white"/><rect x="88" y="264" width="11" height="11" fill="white"/><rect x="99" y="264" width="11" height="11" fill="white"/><rect x="110" y="264" width="11" height="11" fill="white"/><rect x="121" y="264" width="11" height="11" fill="white"/><rect x="132" y="264" width="11" height="11" fill="white"/><rect x="154" y="264" width="11" height="11" fill="white"/><rect x="220" y="264" width="11" height="11" fill="white"/><rect x="231" y="264" width="11" height="11" fill="white"/><rect x="253" y="264" width="11" height="11" fill="white"/><rect x="308" y="264" width="11" height="11" fill="white"/><rect x="330" y="264" width="11" height="11" fill="white"/><rect x="374" y="264" width="11" height="11" fill="white"/><rect x="33" y="275" width="11" height="11" fill="white"/><rect x="44" y="275" width="11" height="11" fill="white"/><rect x="55" y="275" width="11" height="11" fill="white"/><rect x="66" y="275" width="11" height="11" fill="white"/><rect x="110" y="275" width="11" height="11" fill="white"/><rect x="132" y="275" width="11" height="11" fill="white"/><rect x="209" y="275" width="11" height="11" fill="white"/><rect x="231" y="275" width="11" height="11" fill="white"/><rect x="264" y="275" width="11" height="11" fill="white"/><rect x="275" y="275" width="11" height="11" fill="white"/><rect x="286" y="275" width="11" height="11" fill="white"/><rect x="297" y="275" width="11" height="11" fill="white"/><rect x="319" y="275" width="11" height="11" fill="white"/><rect x="22" y="286" width="11" height="11" fill="white"/><rect x="44" y="286" width="11" height="11" fill="white"/><rect x="77" y="286" width="11" height="11" fill="white"/><rect x="88" y="286" width="11" height="11" fill="white"/><rect x="110" y="286" width="11" height="11" fill="white"/><rect x="121" y="286" width="11" height="11" fill="white"/><rect x="132" y="286" width="11" height="11" fill="white"/><rect x="143" y="286" width="11" height="11" fill="white"/><rect x="154" y="286" width="11" height="11" fill="white"/><rect x="176" y="286" width="11" height="11" fill="white"/><rect x="198" y="286" width="11" height="11" fill="white"/><rect x="220" y="286" width="11" height="11" fill="white"/><rect x="231" y="286" width="11" height="11" fill="white"/><rect x="264" y="286" width="11" height="11" fill="white"/><rect x="275" y="286" width="11" height="11" fill="white"/><rect x="286" y="286" width="11" height="11" fill="white"/><rect x="297" y="286" width="11" height="11" fill="white"/><rect x="308" y="286" width="11" height="11" fill="white"/><rect x="319" y="286" width="11" height="11" fill="white"/><rect x="330" y="286" width="11" height="11" fill="white"/><rect x="363" y="286" width="11" height="11" fill="white"/><rect x="374" y="286" width="11" height="11" fill="white"/><rect x="110" y="297" width="11" height="11" fill="white"/><rect x="132" y="297" width="11" height="11" fill="white"/><rect x="143" y="297" width="11" height="11" fill="white"/><rect x="165" y="297" width="11" height="11" fill="white"/><rect x="176" y="297" width="11" height="11" fill="white"/><rect x="187" y="297" width="11" height="11" fill="white"/><rect x="220" y="297" width="11" height="11" fill="white"/><rect x="231" y="297" width="11" height="11" fill="white"/><rect x="286" y="297" width="11" height="11" fill="white"/><rect x="330" y="297" width="11" height="11" fill="white"/><rect x="341" y="297" width="11" height="11" fill="white"/><rect x="363" y="297" width="11" height="11" fill="white"/><rect x="22" y="308" width="11" height="11" fill="white"/><rect x="33" y="308" width="11" height="11" fill="white"/><rect x="44" y="308" width="11" height="11" fill="white"/><rect x="55" y="308" width="11" height="11" fill="white"/><rect x="66" y="308" width="11" height="11" fill="white"/><rect x="77" y="308" width="11" height="11" fill="white"/><rect x="88" y="308" width="11" height="11" fill="white"/><rect x="110" y="308" width="11" height="11" fill="white"/><rect x="132" y="308" width="11" height="11" fill="white"/><rect x="143" y="308" width="11" height="11" fill="white"/><rect x="154" y="308" width="11" height="11" fill="white"/><rect x="187" y="308" width="11" height="11" fill="white"/><rect x="198" y="308" width="11" height="11" fill="white"/><rect x="264" y="308" width="11" height="11" fill="white"/><rect x="275" y="308" width="11" height="11" fill="white"/><rect x="286" y="308" width="11" height="11" fill="white"/><rect x="308" y="308" width="11" height="11" fill="white"/><rect x="330" y="308" width="11" height="11" fill="white"/><rect x="341" y="308" width="11" height="11" fill="white"/><rect x="22" y="319" width="11" height="11" fill="white"/><rect x="88" y="319" width="11" height="11" fill="white"/><rect x="121" y="319" width="11" height="11" fill="white"/><rect x="143" y="319" width="11" height="11" fill="white"/><rect x="154" y="319" width="11" height="11" fill="white"/><rect x="165" y="319" width="11" height="11" fill="white"/><rect x="176" y="319" width="11" height="11" fill="white"/><rect x="209" y="319" width="11" height="11" fill="white"/><rect x="242" y="319" width="11" height="11" fill="white"/><rect x="253" y="319" width="11" height="11" fill="white"/><rect x="264" y="319" width="11" height="11" fill="white"/><rect x="286" y="319" width="11" height="11" fill="white"/><rect x="330" y="319" width="11" height="11" fill="white"/><rect x="352" y="319" width="11" height="11" fill="white"/><rect x="363" y="319" width="11" height="11" fill="white"/><rect x="374" y="319" width="11" height="11" fill="white"/><rect x="22" y="330" width="11" height="11" fill="white"/><rect x="44" y="330" width="11" height="11" fill="white"/><rect x="55" y="330" width="11" height="11" fill="white"/><rect x="66" y="330" width="11" height="11" fill="white"/><rect x="88" y="330" width="11" height="11" fill="white"/><rect x="143" y="330" width="11" height="11" fill="white"/><rect x="176" y="330" width="11" height="11" fill="white"/><rect x="198" y="330" width="11" height="11" fill="white"/><rect x="220" y="330" width="11" height="11" fill="white"/><rect x="231" y="330" width="11" height="11" fill="white"/><rect x="242" y="330" width="11" height="11" fill="white"/><rect x="275" y="330" width="11" height="11" fill="white"/><rect x="286" y="330" width="11" height="11" fill="white"/><rect x="297" y="330" width="11" height="11" fill="white"/><rect x="308" y="330" width="11" height="11" fill="white"/><rect x="319" y="330" width="11" height="11" fill="white"/><rect x="330" y="330" width="11" height="11" fill="white"/><rect x="341" y="330" width="11" height="11" fill="white"/><rect x="352" y="330" width="11" height="11" fill="white"/><rect x="363" y="330" width="11" height="11" fill="white"/><rect x="22" y="341" width="11" height="11" fill="white"/><rect x="44" y="341" width="11" height="11" fill="white"/><rect x="55" y="341" width="11" height="11" fill="white"/><rect x="66" y="341" width="11" height="11" fill="white"/><rect x="88" y="341" width="11" height="11" fill="white"/><rect x="110" y="341" width="11" height="11" fill="white"/><rect x="154" y="341" width="11" height="11" fill="white"/><rect x="176" y="341" width="11" height="11" fill="white"/><rect x="198" y="341" width="11" height="11" fill="white"/><rect x="209" y="341" width="11" height="11" fill="white"/><rect x="220" y="341" width="11" height="11" fill="white"/><rect x="231" y="341" width="11" height="11" fill="white"/><rect x="253" y="341" width="11" height="11" fill="white"/><rect x="275" y="341" width="11" height="11" fill="white"/><rect x="319" y="341" width="11" height="11" fill="white"/><rect x="341" y="341" width="11" height="11" fill="white"/><rect x="22" y="352" width="11" height="11" fill="white"/><rect x="44" y="352" width="11" height="11" fill="white"/><rect x="55" y="352" width="11" height="11" fill="white"/><rect x="66" y="352" width="11" height="11" fill="white"/><rect x="88" y="352" width="11" height="11" fill="white"/><rect x="110" y="352" width="11" height="11" fill="white"/><rect x="132" y="352" width="11" height="11" fill="white"/><rect x="165" y="352" width="11" height="11" fill="white"/><rect x="176" y="352" width="11" height="11" fill="white"/><rect x="187" y="352" width="11" height="11" fill="white"/><rect x="198" y="352" width="11" height="11" fill="white"/><rect x="209" y="352" width="11" height="11" fill="white"/><rect x="242" y="352" width="11" height="11" fill="white"/><rect x="253" y="352" width="11" height="11" fill="white"/><rect x="286" y="352" width="11" height="11" fill="white"/><rect x="297" y="352" width="11" height="11" fill="white"/><rect x="308" y="352" width="11" height="11" fill="white"/><rect x="22" y="363" width="11" height="11" fill="white"/><rect x="88" y="363" width="11" height="11" fill="white"/><rect x="121" y="363" width="11" height="11" fill="white"/><rect x="132" y="363" width="11" height="11" fill="white"/><rect x="154" y="363" width="11" height="11" fill="white"/><rect x="176" y="363" width="11" height="11" fill="white"/><rect x="187" y="363" width="11" height="11" fill="white"/><rect x="220" y="363" width="11" height="11" fill="white"/><rect x="242" y="363" width="11" height="11" fill="white"/><rect x="275" y="363" width="11" height="11" fill="white"/><rect x="286" y="363" width="11" height="11" fill="white"/><rect x="308" y="363" width="11" height="11" fill="white"/><rect x="374" y="363" width="11" height="11" fill="white"/><rect x="22" y="374" width="11" height="11" fill="white"/><rect x="33" y="374" width="11" height="11" fill="white"/><rect x="44" y="374" width="11" height="11" fill="white"/><rect x="55" y="374" width="11" height="11" fill="white"/><rect x="66" y="374" width="11" height="11" fill="white"/><rect x="77" y="374" width="11" height="11" fill="white"/><rect x="88" y="374" width="11" height="11" fill="white"/><rect x="121" y="374" width="11" height="11" fill="white"/><rect x="132" y="374" width="11" height="11" fill="white"/><rect x="187" y="374" width="11" height="11" fill="white"/><rect x="209" y="374" width="11" height="11" fill="white"/><rect x="220" y="374" width="11" height="11" fill="white"/><rect x="264" y="374" width="11" height="11" fill="white"/><rect x="319" y="374" width="11" height="11" fill="white"/><rect x="330" y="374" width="11" height="11" fill="white"/><rect x="352" y="374" width="11" height="11" fill="white"/></svg>